{"title":"THE 13TH WARRIOR.DEWSTRR","uid":4874889,"size":1175300341,"categoryP":"video","categoryS":"movies","magnet":"?xt=urn:btih:738eea8f131c37b52eb95f30253ddb9786c9beb2&amp;dn=THE+13TH+WARRIOR.DEWSTRR&amp;tr=udp%3A%2F%2Ftracker.openbittorrent.com%3A80&amp;tr=udp%3A%2F%2Fopen.demonii.com%3A1337&amp;tr=udp%3A%2F%2Ftracker.coppersurfer.tk%3A6969&amp;tr=udp%3A%2F%2Fexodus.desync.com%3A6969","seeders":1,"leechers":0,"uploader":"dewstrr505","files":15,"time":1241071649,"description":"THE 13TH WARRIOR\n\nAction | Adventure | Fantasy\n\nArab courtier Ahmad Ibn Fadlan is sent to the barbaric north as an emissary, because he fell in love with the wrong woman. In AD 922, this usually meant goodbye forever. Shortly after the party ran into exploring Vikings and befriended them, a young boy reaches the camp to call the warriors home: The Wendol, creatures of the Mist, have started attacking their homeland, killing and eating everyone in their way. The oracle forces a thirteenth warrior to accompany the Vikings, but this must not be a man from the north. Ahmad Ibn Fadlan, who quickly is nicknamed Eban, first does not feel comfortable with the strange men of the north, but when he finds out that the Wendol really exist, he bravely fights alongside the Vikings in a battle that can't be won.\n\n[IMG]http://i203.photobucket.com/albums/aa38/476352oop/MOVIES/13WCP.jpg[/IMG]\n &lt;a href=&quot;\nhttp://www.imdb.com/title/tt0120657/&quot; rel=&quot;nofollow&quot; target=&quot;_NEW&quot;&gt;\nhttp://www.imdb.com/title/tt0120657/&lt;/a&gt;\n\nFormat :      AVI\nFormat/Info :     Audio Video Interleave\nFile size :     1.09 GiB\nDuration :     1h 42mn\nOverall bit rate :     1 526 Kbps\nWriting application :     VirtualDubMod 1.5.4.1 (build 2178/release)\nWriting library :     VirtualDubMod build 2178/release\n\nVideo\nFormat :     MPEG-4 Visual\nFormat settings, BVOP :     Yes\nFormat settings, QPel :     No\nFormat settings, GMC :     No warppoints\nFormat settings, Matrix :     Default\nCodec ID :     DX50\nCodec ID/Hint :     DivX 5\nDuration :     1h 42mn\nBit rate :     1 135 Kbps\nWidth :     704 pixels\nHeight :     304 pixels\nDisplay aspect ratio :     2.35\nFrame rate :     23.976 fps\nResolution :     24 bits\nColorimetry :     4:2:0\nScan type :     Progressive\nBits/(Pixel*Frame) :     0.221\nStream size :     834 MiB (74%)\nWriting library :     DivX 2816\n\nAudio\nFormat :     AC-3\nFormat/Info :     Audio Coding 3\nCodec ID :     2000\nDuration :     1h 42mn\nBit rate mode :     Constant\nBit rate :     384 Kbps\nChannel(s) :     6 channels\nChannel positions :     Front: L C R, Surround: L R, LFE\nSampling rate :     48.0 KHz\nVideo delay :     24ms\nStream size :     282 MiB (25%)\nAlignment :     Split accross interleaves\nInterleave, duration :     96 ms (2.30 video frames)\nInterleave, preload duration :     96 ms\n\nGeneral\nComplete name :13TH WARRIOR.sfv\nFile size :     1.70 KiB\n\nGeneral\nComplete name : THE 13TH\nFile size :     47.0 Bytes\n[IMG]http://i203.photobucket.com/albums/aa38/476352oop/MOVIES/13W1.jpg[/IMG]\n[IMG]http://i203.photobucket.com/albums/aa38/476352oop/MOVIES/13W2.jpg[/IMG]\n[IMG]http://i203.photobucket.com/albums/aa38/476352oop/MOVIES/13W3.jpg[/IMG]\n[IMG]http://i203.photobucket.com/albums/aa38/476352oop/MOVIES/13W4.jpg[/IMG]\n[IMG]http://i203.photobucket.com/albums/aa38/476352oop/MOVIES/13W5.jpg[/IMG]\n[IMG]http://i203.photobucket.com/albums/aa38/476352oop/MOVIES/13W6.jpg[/IMG]\n[IMG]http://i203.photobucket.com/albums/aa38/476352oop/MOVIES/13W7.jpg[/IMG]\n[IMG]http://i203.photobucket.com/albums/aa38/476352oop/MOVIES/13W8.jpg[/IMG]\n[IMG]http://i203.photobucket.com/albums/aa38/476352oop/MOVIES/13W9.jpg[/IMG]\n[IMG]http://i203.photobucket.com/albums/aa38/476352oop/MOVIES/13W10.jpg[/IMG]\nburned with windows [with a couple of other movies on a disk] and played on my philips divx ultra certified dvd player\nbe sure to set your dvd player on the correct aspect ratio\n\n\n\n","torrent":{"xt":"urn:btih:738eea8f131c37b52eb95f30253ddb9786c9beb2","amp;dn":"THE+13TH+WARRIOR.DEWSTRR","amp;tr":["udp%3A%2F%2Ftracker.openbittorrent.com%3A80","udp%3A%2F%2Fopen.demonii.com%3A1337","udp%3A%2F%2Ftracker.coppersurfer.tk%3A6969","udp%3A%2F%2Fexodus.desync.com%3A6969"],"infoHash":"738eea8f131c37b52eb95f30253ddb9786c9beb2","infoHashBuffer":{"type":"Buffer","data":[115,142,234,143,19,28,55,181,46,185,95,48,37,61,219,151,134,201,190,178]},"announce":[],"urlList":[]}}